<svg xmlns="http://www.w3.org/2000/svg" xmlns:xlink="http://www.w3.org/1999/xlink" preserveAspectRatio="xMidYMid" width="820" height="165" viewBox="0 0 820 165">
  <defs>
    <style>
      .cls-1 {
        fill: #000;
      }

      .cls-1, .cls-2, .cls-3 {
        fill-rule: evenodd;
      }

      .cls-2 {
        fill: #ed7314;
      }

      .cls-3 {
        fill: #309b33;
      }
    </style>
  </defs>
  <g>
    <path d="M800.829,101.531 L800.829,71.057 C800.829,62.923 798.176,58.226 792.525,58.226 C788.488,58.226 785.605,60.975 784.452,64.298 C783.991,65.558 783.760,67.391 783.760,68.766 L783.760,101.531 L766.691,101.531 L766.691,70.140 C766.691,63.038 764.153,58.226 758.617,58.226 C754.119,58.226 751.467,61.663 750.429,64.527 C749.852,65.902 749.737,67.505 749.737,68.880 L749.737,101.531 L732.668,101.531 L732.668,63.381 C732.668,56.393 732.437,50.436 732.206,45.509 L746.969,45.509 L747.776,53.071 L748.122,53.071 C750.544,49.519 755.503,44.249 765.191,44.249 C772.457,44.249 778.224,47.915 780.646,53.758 L780.877,53.758 C782.953,50.894 785.490,48.603 788.142,46.999 C791.256,45.166 794.716,44.249 798.868,44.249 C809.710,44.249 817.898,51.810 817.898,68.537 L817.898,101.531 L800.829,101.531 ZM692.086,102.791 C675.594,102.791 662.907,92.022 662.907,73.921 C662.907,55.820 674.902,44.249 693.009,44.249 C710.309,44.249 721.842,56.049 721.842,72.890 C721.842,93.397 707.195,102.791 692.086,102.791 ZM692.547,56.622 C684.128,56.622 681.014,65.214 681.014,73.463 C681.014,83.086 685.051,90.304 692.547,90.304 C699.352,90.304 703.735,83.544 703.735,73.463 C703.735,65.100 700.505,56.622 692.547,56.622 ZM644.006,57.653 C634.779,57.653 628.782,64.183 628.897,73.348 C628.897,83.659 635.817,89.043 644.352,89.043 C648.504,89.043 651.733,88.356 654.386,87.325 L656.462,100.156 C653.348,101.531 647.466,102.676 640.776,102.676 C622.554,102.676 610.905,91.678 610.905,74.036 C610.905,57.653 622.208,44.249 643.198,44.249 C647.812,44.249 652.886,45.051 656.577,46.426 L653.809,59.371 C651.733,58.455 648.619,57.653 644.006,57.653 ZM593.152,102.791 C587.154,102.791 582.887,98.323 582.887,92.251 C582.887,86.065 587.154,81.597 593.267,81.597 C599.380,81.597 603.532,85.950 603.532,92.251 C603.532,98.323 599.380,102.791 593.152,102.791 ZM552.570,70.484 C552.570,63.267 550.033,58.340 543.690,58.340 C538.846,58.340 535.962,61.663 534.809,64.871 C534.348,65.902 534.117,67.620 534.117,69.224 L534.117,101.531 L516.586,101.531 L516.586,63.381 C516.586,56.393 516.356,50.436 516.125,45.509 L531.349,45.509 L532.156,53.185 L532.502,53.185 C534.809,49.634 540.576,44.249 549.917,44.249 C561.451,44.249 570.101,51.810 570.101,68.307 L570.101,101.531 L552.570,101.531 L552.570,70.484 ZM469.199,79.076 C469.775,86.294 476.926,89.731 485.115,89.731 C491.112,89.731 495.956,88.929 500.684,87.440 L502.991,99.240 C497.224,101.531 490.189,102.676 482.577,102.676 C463.432,102.676 452.475,91.678 452.475,74.150 C452.475,59.944 461.356,44.249 480.963,44.249 C499.185,44.249 506.105,58.340 506.105,72.203 C506.105,75.181 505.759,77.816 505.528,79.076 L469.199,79.076 ZM479.925,55.820 C472.543,55.820 469.545,62.465 469.083,67.162 L489.843,67.162 C489.843,62.923 487.998,55.820 479.925,55.820 ZM408.317,79.076 C408.894,86.294 416.044,89.731 424.233,89.731 C430.230,89.731 435.074,88.929 439.803,87.440 L442.109,99.240 C436.343,101.531 429.307,102.676 421.696,102.676 C402.550,102.676 391.594,91.678 391.594,74.150 C391.594,59.944 400.474,44.249 420.081,44.249 C438.303,44.249 445.223,58.340 445.223,72.203 C445.223,75.181 444.877,77.816 444.647,79.076 L408.317,79.076 ZM419.043,55.820 C411.662,55.820 408.663,62.465 408.202,67.162 L428.961,67.162 C428.961,62.923 427.116,55.820 419.043,55.820 ZM363.823,71.057 C363.823,62.923 361.170,58.226 355.519,58.226 C351.482,58.226 348.599,60.975 347.446,64.298 C346.984,65.558 346.754,67.391 346.754,68.766 L346.754,101.531 L329.685,101.531 L329.685,70.140 C329.685,63.038 327.147,58.226 321.611,58.226 C317.113,58.226 314.461,61.663 313.423,64.527 C312.846,65.902 312.731,67.505 312.731,68.880 L312.731,101.531 L295.661,101.531 L295.661,63.381 C295.661,56.393 295.431,50.436 295.200,45.509 L309.963,45.509 L310.770,53.071 L311.116,53.071 C313.538,49.519 318.497,44.249 328.185,44.249 C335.451,44.249 341.218,47.915 343.640,53.758 L343.870,53.758 C345.946,50.894 348.484,48.603 351.136,46.999 C354.250,45.166 357.710,44.249 361.862,44.249 C372.704,44.249 380.892,51.810 380.892,68.537 L380.892,101.531 L363.823,101.531 L363.823,71.057 ZM265.804,95.917 L265.458,95.917 C261.768,100.385 256.001,102.791 249.312,102.791 C237.894,102.791 231.089,94.542 231.089,85.606 C231.089,71.057 244.237,64.069 264.190,64.183 L264.190,63.381 C264.190,60.403 262.575,56.164 253.925,56.164 C248.158,56.164 242.046,58.111 238.355,60.403 L235.126,49.175 C239.047,46.999 246.774,44.249 257.039,44.249 C275.838,44.249 281.835,55.247 281.835,68.422 L281.835,87.898 C281.835,93.282 282.066,98.438 282.643,101.531 L266.842,101.531 L265.804,95.917 ZM264.766,75.067 C255.540,74.952 248.389,77.129 248.389,83.888 C248.389,88.356 251.388,90.533 255.309,90.533 C259.692,90.533 263.267,87.669 264.420,84.117 C264.651,83.201 264.766,82.170 264.766,81.139 L264.766,75.067 ZM176.204,91.564 L193.965,69.453 C197.194,65.672 199.732,62.923 202.961,59.486 L202.961,59.257 L178.165,59.257 L178.165,45.509 L224.298,45.509 L224.298,55.935 L207.344,77.129 C204.230,80.795 201.346,84.346 198.117,87.440 L198.117,87.669 L225.220,87.669 L225.220,101.531 L176.204,101.531 L176.204,91.564 Z" class="cls-1"/>
    <path d="M815.976,143.579 C815.963,143.914 815.942,144.216 815.916,144.483 L802.002,144.483 C802.136,146.172 802.734,147.479 803.796,148.404 C804.858,149.328 806.398,149.791 808.414,149.791 C809.597,149.791 810.679,149.684 811.661,149.469 C812.642,149.255 813.415,149.027 813.980,148.786 L814.625,152.766 C814.356,152.901 813.986,153.041 813.516,153.188 C813.045,153.336 812.508,153.470 811.903,153.590 C811.298,153.711 810.646,153.812 809.947,153.892 C809.247,153.972 808.535,154.013 807.809,154.013 C805.954,154.013 804.341,153.737 802.970,153.188 C801.598,152.639 800.469,151.875 799.582,150.896 C798.694,149.918 798.035,148.765 797.605,147.439 C797.175,146.112 796.960,144.658 796.960,143.076 C796.960,141.226 797.236,139.605 797.787,138.211 C798.338,136.817 799.071,135.658 799.985,134.733 C800.899,133.808 801.947,133.111 803.131,132.642 C804.314,132.173 805.524,131.938 806.761,131.938 C809.665,131.938 811.929,132.837 813.557,134.632 C815.183,136.429 815.997,139.109 815.997,142.674 C815.997,142.942 815.990,143.244 815.976,143.579 ZM810.834,138.995 C810.646,138.392 810.370,137.869 810.007,137.427 C809.644,136.985 809.201,136.637 808.676,136.381 C808.152,136.127 807.527,135.999 806.801,135.999 C806.048,135.999 805.389,136.140 804.825,136.422 C804.260,136.703 803.782,137.072 803.393,137.527 C803.003,137.983 802.700,138.506 802.486,139.095 C802.270,139.685 802.123,140.289 802.042,140.905 L811.116,140.905 C811.116,140.235 811.022,139.598 810.834,138.995 ZM788.813,153.972 C787.307,153.972 786.051,153.771 785.042,153.369 C784.034,152.967 783.234,152.384 782.643,151.620 C782.051,150.856 781.634,149.931 781.392,148.846 C781.150,147.760 781.029,146.521 781.029,145.127 L781.029,126.913 L785.909,126.108 L785.909,132.461 L793.411,132.461 L793.411,136.522 L785.909,136.522 L785.909,145.086 C785.909,146.775 786.178,147.981 786.716,148.705 C787.254,149.429 788.168,149.791 789.459,149.791 C790.346,149.791 791.132,149.697 791.818,149.509 C792.504,149.322 793.048,149.147 793.451,148.987 L794.258,152.847 C793.693,153.088 792.954,153.336 792.040,153.590 C791.125,153.845 790.050,153.972 788.813,153.972 ZM772.601,129.285 C771.767,129.285 771.054,129.017 770.463,128.481 C769.871,127.945 769.576,127.221 769.576,126.309 C769.576,125.371 769.871,124.634 770.463,124.098 C771.054,123.562 771.767,123.294 772.601,123.294 C773.407,123.294 774.106,123.562 774.698,124.098 C775.289,124.634 775.585,125.371 775.585,126.309 C775.585,127.221 775.289,127.945 774.698,128.481 C774.106,129.017 773.407,129.285 772.601,129.285 ZM756.953,154.013 C755.098,154.013 753.605,153.858 752.476,153.550 C751.347,153.242 750.553,152.994 750.096,152.806 L750.943,148.745 C751.669,149.041 752.536,149.322 753.545,149.590 C754.553,149.858 755.703,149.992 756.993,149.992 C758.284,149.992 759.225,149.838 759.816,149.529 C760.407,149.222 760.704,148.692 760.704,147.941 C760.704,147.244 760.387,146.668 759.756,146.212 C759.124,145.757 758.082,145.261 756.630,144.725 C755.743,144.403 754.929,144.061 754.190,143.699 C753.450,143.337 752.812,142.915 752.274,142.433 C751.736,141.950 751.313,141.367 751.004,140.684 C750.694,140.000 750.540,139.163 750.540,138.171 C750.540,136.241 751.252,134.720 752.678,133.607 C754.102,132.495 756.038,131.938 758.485,131.938 C759.722,131.938 760.905,132.053 762.035,132.280 C763.164,132.508 764.011,132.729 764.575,132.944 L763.688,136.884 C763.150,136.643 762.464,136.422 761.631,136.221 C760.797,136.020 759.830,135.919 758.727,135.919 C757.732,135.919 756.926,136.087 756.307,136.422 C755.689,136.757 755.380,137.273 755.380,137.970 C755.380,138.318 755.440,138.627 755.561,138.894 C755.682,139.163 755.890,139.411 756.186,139.638 C756.482,139.866 756.872,140.094 757.356,140.322 C757.840,140.550 758.431,140.784 759.131,141.025 C760.286,141.455 761.268,141.877 762.075,142.292 C762.881,142.708 763.547,143.177 764.071,143.699 C764.596,144.222 764.979,144.819 765.221,145.489 C765.463,146.159 765.584,146.963 765.584,147.901 C765.584,149.911 764.838,151.433 763.345,152.465 C761.853,153.496 759.722,154.013 756.953,154.013 ZM743.785,151.037 C742.857,152.002 741.734,152.740 740.417,153.249 C739.100,153.758 737.607,154.013 735.941,154.013 C734.327,154.013 732.788,153.892 731.323,153.651 C729.857,153.409 728.641,153.142 727.673,152.847 L727.673,123.093 L732.553,122.289 L732.553,133.185 C733.117,132.890 733.809,132.622 734.630,132.381 C735.450,132.140 736.357,132.019 737.352,132.019 C738.830,132.019 740.155,132.280 741.325,132.803 C742.494,133.326 743.469,134.070 744.249,135.034 C745.028,135.999 745.626,137.159 746.043,138.512 C746.460,139.866 746.669,141.361 746.669,142.996 C746.669,144.684 746.420,146.206 745.923,147.559 C745.425,148.913 744.713,150.072 743.785,151.037 ZM740.437,138.010 C739.617,136.804 738.320,136.201 736.545,136.201 C735.739,136.201 734.979,136.321 734.267,136.562 C733.554,136.804 732.982,137.072 732.553,137.367 L732.553,149.469 C732.902,149.550 733.352,149.624 733.904,149.690 C734.455,149.757 735.120,149.791 735.900,149.791 C737.701,149.791 739.113,149.181 740.135,147.961 C741.156,146.742 741.668,145.060 741.668,142.915 C741.668,140.851 741.257,139.216 740.437,138.010 ZM722.430,144.483 L708.515,144.483 C708.650,146.172 709.248,147.479 710.310,148.404 C711.372,149.328 712.911,149.791 714.928,149.791 C716.111,149.791 717.193,149.684 718.175,149.469 C719.156,149.255 719.929,149.027 720.494,148.786 L721.139,152.766 C720.870,152.901 720.500,153.041 720.030,153.188 C719.559,153.336 719.022,153.470 718.417,153.590 C717.812,153.711 717.159,153.812 716.461,153.892 C715.761,153.972 715.049,154.013 714.323,154.013 C712.468,154.013 710.855,153.737 709.483,153.188 C708.112,152.639 706.983,151.875 706.095,150.896 C705.208,149.918 704.549,148.765 704.119,147.439 C703.689,146.112 703.474,144.658 703.474,143.076 C703.474,141.226 703.749,139.605 704.301,138.211 C704.851,136.817 705.584,135.658 706.499,134.733 C707.412,133.808 708.461,133.111 709.645,132.642 C710.827,132.173 712.037,131.938 713.274,131.938 C716.178,131.938 718.443,132.837 720.070,134.632 C721.697,136.429 722.510,139.109 722.510,142.674 C722.510,142.942 722.503,143.244 722.490,143.579 C722.476,143.914 722.456,144.216 722.430,144.483 ZM717.348,138.995 C717.159,138.392 716.884,137.869 716.521,137.427 C716.158,136.985 715.714,136.637 715.190,136.381 C714.666,136.127 714.041,135.999 713.315,135.999 C712.562,135.999 711.903,136.140 711.338,136.422 C710.774,136.703 710.296,137.072 709.907,137.527 C709.517,137.983 709.214,138.506 708.999,139.095 C708.784,139.685 708.636,140.289 708.556,140.905 L717.630,140.905 C717.630,140.235 717.536,139.598 717.348,138.995 ZM693.603,153.490 L688.713,153.490 C686.630,148.076 684.613,142.165 682.663,135.758 C681.667,139.002 680.658,142.085 679.635,145.006 C678.611,147.928 677.589,150.756 676.566,153.490 L671.717,153.490 C670.269,149.255 668.974,144.812 667.834,140.161 C666.694,135.511 665.655,130.666 664.716,125.626 L670.161,125.626 C670.483,127.449 670.826,129.312 671.189,131.215 C671.552,133.118 671.928,134.988 672.319,136.824 C672.708,138.660 673.105,140.436 673.508,142.151 C673.912,143.867 674.315,145.448 674.718,146.896 C675.229,145.529 675.747,144.088 676.271,142.573 C676.795,141.059 677.313,139.518 677.824,137.950 C678.334,136.381 678.825,134.820 679.296,133.265 C679.766,131.711 680.203,130.210 680.607,128.762 L684.962,128.762 C685.392,130.210 685.850,131.717 686.334,133.285 C686.818,134.854 687.322,136.422 687.846,137.990 C688.370,139.558 688.895,141.100 689.419,142.614 C689.943,144.128 690.447,145.556 690.931,146.896 C691.335,145.448 691.724,143.874 692.101,142.171 C692.477,140.469 692.853,138.700 693.230,136.864 C693.606,135.028 693.976,133.159 694.339,131.255 C694.702,129.352 695.045,127.475 695.368,125.626 L700.611,125.626 C699.671,130.666 698.624,135.511 697.469,140.161 C696.315,144.812 695.026,149.255 693.603,153.490 ZM644.482,157.269 C643.917,158.127 643.285,158.838 642.585,159.400 C641.885,159.963 641.104,160.372 640.243,160.627 C639.382,160.881 638.386,161.009 637.256,161.009 C636.502,161.009 635.755,160.928 635.015,160.767 C634.274,160.607 633.716,160.432 633.339,160.245 L634.226,156.345 C635.199,156.720 636.158,156.908 637.103,156.908 C638.372,156.908 639.365,156.606 640.081,156.003 C640.797,155.400 641.424,154.468 641.965,153.208 C640.425,150.260 638.947,147.043 637.529,143.559 C636.111,140.074 634.849,136.375 633.742,132.461 L638.945,132.461 C639.215,133.587 639.545,134.807 639.937,136.120 C640.328,137.434 640.754,138.768 641.212,140.121 C641.671,141.475 642.156,142.822 642.669,144.162 C643.182,145.502 643.695,146.749 644.208,147.901 C645.065,145.516 645.868,142.976 646.618,140.282 C647.367,137.588 648.049,134.981 648.665,132.461 L653.706,132.461 C651.532,140.449 649.009,147.687 646.138,154.173 C645.600,155.380 645.048,156.411 644.482,157.269 ZM627.168,153.972 C625.662,153.972 624.406,153.771 623.397,153.369 C622.389,152.967 621.589,152.384 620.998,151.620 C620.406,150.856 619.989,149.931 619.747,148.846 C619.505,147.760 619.385,146.521 619.385,145.127 L619.385,126.913 L624.265,126.108 L624.265,132.461 L631.766,132.461 L631.766,136.522 L624.265,136.522 L624.265,145.086 C624.265,146.775 624.533,147.981 625.071,148.705 C625.609,149.429 626.523,149.791 627.814,149.791 C628.701,149.791 629.487,149.697 630.173,149.509 C630.859,149.322 631.403,149.147 631.807,148.987 L632.613,152.847 C632.049,153.088 631.309,153.336 630.395,153.590 C629.481,153.845 628.405,153.972 627.168,153.972 ZM613.718,136.422 C613.005,136.275 612.178,136.201 611.238,136.201 C610.699,136.201 610.128,136.255 609.524,136.361 C608.919,136.469 608.495,136.562 608.253,136.643 L608.253,153.490 L603.373,153.490 L603.373,133.466 C604.314,133.118 605.490,132.790 606.902,132.481 C608.314,132.173 609.880,132.019 611.601,132.019 C611.923,132.019 612.299,132.039 612.730,132.079 C613.160,132.119 613.590,132.173 614.020,132.240 C614.450,132.307 614.867,132.388 615.271,132.481 C615.674,132.576 615.997,132.662 616.239,132.743 L615.392,136.844 C614.988,136.710 614.430,136.569 613.718,136.422 ZM598.130,144.483 L584.216,144.483 C584.350,146.172 584.948,147.479 586.010,148.404 C587.072,149.328 588.612,149.791 590.628,149.791 C591.811,149.791 592.893,149.684 593.875,149.469 C594.856,149.255 595.629,149.027 596.194,148.786 L596.839,152.766 C596.570,152.901 596.200,153.041 595.730,153.188 C595.260,153.336 594.722,153.470 594.117,153.590 C593.512,153.711 592.860,153.812 592.161,153.892 C591.461,153.972 590.749,154.013 590.023,154.013 C588.168,154.013 586.555,153.737 585.184,153.188 C583.812,152.639 582.683,151.875 581.796,150.896 C580.909,149.918 580.249,148.765 579.820,147.439 C579.389,146.112 579.174,144.658 579.174,143.076 C579.174,141.226 579.450,139.605 580.001,138.211 C580.552,136.817 581.285,135.658 582.199,134.733 C583.113,133.808 584.162,133.111 585.345,132.642 C586.528,132.173 587.738,131.938 588.975,131.938 C591.879,131.938 594.143,132.837 595.771,134.632 C597.397,136.429 598.211,139.109 598.211,142.674 C598.211,142.942 598.204,143.244 598.190,143.579 C598.177,143.914 598.156,144.216 598.130,144.483 ZM593.048,138.995 C592.860,138.392 592.584,137.869 592.221,137.427 C591.858,136.985 591.415,136.637 590.891,136.381 C590.366,136.127 589.741,135.999 589.015,135.999 C588.262,135.999 587.604,136.140 587.039,136.422 C586.474,136.703 585.997,137.072 585.607,137.527 C585.217,137.983 584.915,138.506 584.700,139.095 C584.484,139.685 584.337,140.289 584.256,140.905 L593.331,140.905 C593.331,140.235 593.236,139.598 593.048,138.995 ZM572.883,150.876 C572.103,151.841 571.129,152.592 569.959,153.128 C568.789,153.664 567.465,153.932 565.986,153.932 C564.991,153.932 564.077,153.812 563.244,153.570 C562.410,153.329 561.724,153.061 561.187,152.766 L561.187,160.928 L556.307,160.928 L556.307,133.145 C557.301,132.877 558.525,132.622 559.977,132.381 C561.429,132.140 562.961,132.019 564.575,132.019 C566.241,132.019 567.734,132.274 569.051,132.783 C570.369,133.292 571.491,134.023 572.419,134.974 C573.347,135.926 574.059,137.079 574.557,138.432 C575.054,139.786 575.303,141.307 575.303,142.996 C575.303,144.604 575.094,146.078 574.678,147.418 C574.260,148.759 573.662,149.911 572.883,150.876 ZM568.830,138.010 C567.848,136.804 566.269,136.201 564.091,136.201 C563.633,136.201 563.156,136.221 562.659,136.261 C562.161,136.301 561.671,136.388 561.187,136.522 L561.187,148.544 C561.617,148.840 562.188,149.114 562.901,149.369 C563.613,149.624 564.373,149.751 565.180,149.751 C566.954,149.751 568.251,149.147 569.072,147.941 C569.891,146.735 570.302,145.113 570.302,143.076 C570.302,140.905 569.811,139.216 568.830,138.010 ZM548.483,150.997 C547.596,151.962 546.527,152.713 545.277,153.249 C544.026,153.785 542.648,154.053 541.143,154.053 C539.636,154.053 538.265,153.785 537.029,153.249 C535.792,152.713 534.730,151.962 533.843,150.997 C532.955,150.032 532.263,148.866 531.766,147.499 C531.268,146.132 531.019,144.618 531.019,142.955 C531.019,141.294 531.268,139.786 531.766,138.432 C532.263,137.079 532.962,135.919 533.863,134.954 C534.763,133.989 535.832,133.245 537.069,132.723 C538.305,132.200 539.664,131.938 541.143,131.938 C542.621,131.938 543.986,132.200 545.236,132.723 C546.486,133.245 547.555,133.989 548.443,134.954 C549.330,135.919 550.022,137.079 550.520,138.432 C551.017,139.786 551.266,141.294 551.266,142.955 C551.266,144.618 551.024,146.132 550.540,147.499 C550.056,148.866 549.370,150.032 548.483,150.997 ZM544.914,137.990 C544.012,136.770 542.756,136.160 541.143,136.160 C539.529,136.160 538.272,136.770 537.372,137.990 C536.470,139.210 536.021,140.865 536.021,142.955 C536.021,145.073 536.470,146.749 537.372,147.981 C538.272,149.215 539.529,149.831 541.143,149.831 C542.756,149.831 544.012,149.215 544.914,147.981 C545.814,146.749 546.265,145.073 546.265,142.955 C546.265,140.865 545.814,139.210 544.914,137.990 ZM526.281,136.422 C525.568,136.275 524.741,136.201 523.800,136.201 C523.262,136.201 522.691,136.255 522.086,136.361 C521.481,136.469 521.058,136.562 520.816,136.643 L520.816,153.490 L515.936,153.490 L515.936,133.466 C516.876,133.118 518.053,132.790 519.465,132.481 C520.876,132.173 522.442,132.019 524.163,132.019 C524.486,132.019 524.862,132.039 525.292,132.079 C525.722,132.119 526.153,132.173 526.583,132.240 C527.013,132.307 527.430,132.388 527.833,132.481 C528.237,132.576 528.559,132.662 528.801,132.743 L527.954,136.844 C527.551,136.710 526.993,136.569 526.281,136.422 ZM508.152,141.528 C507.049,142.266 505.705,142.808 504.119,143.156 C502.532,143.505 500.717,143.679 498.674,143.679 L496.133,143.679 L496.133,153.490 L491.052,153.490 L491.052,126.028 C492.235,125.760 493.545,125.579 494.984,125.485 C496.422,125.392 497.747,125.344 498.957,125.344 C503.016,125.344 506.129,126.082 508.293,127.556 C510.457,129.030 511.540,131.335 511.540,134.472 C511.540,136.107 511.251,137.507 510.673,138.673 C510.094,139.839 509.254,140.791 508.152,141.528 ZM505.692,132.140 C505.342,131.523 504.858,131.041 504.240,130.692 C503.621,130.344 502.889,130.096 502.042,129.948 C501.195,129.801 500.288,129.727 499.320,129.727 C498.029,129.727 496.967,129.767 496.133,129.848 L496.133,139.337 L498.594,139.337 C501.040,139.337 502.922,138.995 504.240,138.311 C505.557,137.628 506.216,136.335 506.216,134.431 C506.216,133.520 506.041,132.756 505.692,132.140 ZM462.151,127.820 C461.278,128.497 460.179,129.158 458.854,129.802 C457.528,130.447 456.251,130.979 455.023,131.398 L453.229,126.950 C455.103,126.209 456.987,125.258 458.878,124.098 C460.769,122.938 462.442,121.568 463.897,119.989 L468.018,119.989 L468.018,153.490 L462.151,153.490 L462.151,127.820 ZM442.416,154.118 C441.316,154.118 440.395,153.763 439.652,153.055 C438.908,152.346 438.537,151.428 438.537,150.299 C438.537,149.172 438.908,148.245 439.652,147.520 C440.395,146.795 441.316,146.432 442.416,146.432 C443.483,146.432 444.396,146.795 445.155,147.520 C445.915,148.245 446.295,149.172 446.295,150.299 C446.295,151.428 445.915,152.346 445.155,153.055 C444.396,153.763 443.483,154.118 442.416,154.118 ZM430.294,150.493 C429.227,151.653 427.942,152.556 426.439,153.200 C424.935,153.844 423.278,154.167 421.468,154.167 C419.658,154.167 418.009,153.844 416.522,153.200 C415.035,152.556 413.758,151.653 412.692,150.493 C411.625,149.332 410.792,147.931 410.194,146.287 C409.596,144.643 409.297,142.823 409.297,140.824 C409.297,138.826 409.596,137.014 410.194,135.386 C410.792,133.759 411.632,132.364 412.716,131.204 C413.799,130.044 415.084,129.150 416.571,128.521 C418.057,127.893 419.690,127.579 421.468,127.579 C423.246,127.579 424.887,127.893 426.390,128.521 C427.893,129.150 429.178,130.044 430.245,131.204 C431.312,132.364 432.144,133.759 432.742,135.386 C433.340,137.014 433.639,138.826 433.639,140.824 C433.639,142.823 433.349,144.643 432.767,146.287 C432.185,147.931 431.360,149.332 430.294,150.493 ZM426.002,134.854 C424.919,133.388 423.408,132.655 421.468,132.655 C419.529,132.655 418.017,133.388 416.935,134.854 C415.851,136.321 415.310,138.311 415.310,140.824 C415.310,143.371 415.851,145.385 416.935,146.867 C418.017,148.350 419.529,149.091 421.468,149.091 C423.408,149.091 424.919,148.350 426.002,146.867 C427.085,145.385 427.627,143.371 427.627,140.824 C427.627,138.311 427.085,136.321 426.002,134.854 ZM394.072,147.568 C392.714,145.458 391.308,143.331 389.853,141.187 C388.398,139.044 386.919,136.965 385.416,134.951 C383.913,132.937 382.483,131.124 381.125,129.512 L381.125,153.490 L375.112,153.490 L375.112,119.989 L380.107,119.989 C381.399,121.343 382.789,122.946 384.277,124.799 C385.763,126.653 387.259,128.578 388.762,130.576 C390.265,132.574 391.720,134.581 393.126,136.594 C394.532,138.609 395.785,140.486 396.884,142.226 L396.884,119.989 L402.946,119.989 L402.946,153.490 L397.757,153.490 C396.658,151.653 395.430,149.679 394.072,147.568 ZM351.609,154.013 C349.753,154.013 348.261,153.858 347.132,153.550 C346.003,153.242 345.209,152.994 344.752,152.806 L345.599,148.745 C346.325,149.041 347.192,149.322 348.201,149.590 C349.209,149.858 350.358,149.992 351.649,149.992 C352.939,149.992 353.880,149.838 354.472,149.529 C355.063,149.222 355.359,148.692 355.359,147.941 C355.359,147.244 355.043,146.668 354.412,146.212 C353.780,145.757 352.738,145.261 351.286,144.725 C350.399,144.403 349.585,144.061 348.846,143.699 C348.106,143.337 347.468,142.915 346.930,142.433 C346.392,141.950 345.968,141.367 345.660,140.684 C345.350,140.000 345.196,139.163 345.196,138.171 C345.196,136.241 345.908,134.720 347.333,133.607 C348.758,132.495 350.694,131.938 353.141,131.938 C354.378,131.938 355.561,132.053 356.690,132.280 C357.820,132.508 358.667,132.729 359.231,132.944 L358.344,136.884 C357.806,136.643 357.120,136.422 356.287,136.221 C355.453,136.020 354.485,135.919 353.383,135.919 C352.388,135.919 351.581,136.087 350.963,136.422 C350.344,136.757 350.036,137.273 350.036,137.970 C350.036,138.318 350.096,138.627 350.217,138.894 C350.338,139.163 350.546,139.411 350.842,139.638 C351.138,139.866 351.528,140.094 352.012,140.322 C352.496,140.550 353.087,140.784 353.786,141.025 C354.942,141.455 355.924,141.877 356.731,142.292 C357.537,142.708 358.203,143.177 358.727,143.699 C359.251,144.222 359.635,144.819 359.876,145.489 C360.118,146.159 360.239,146.963 360.239,147.901 C360.239,149.911 359.493,151.433 358.001,152.465 C356.509,153.496 354.378,154.013 351.609,154.013 ZM339.973,129.506 C339.395,130.994 338.689,132.314 337.856,133.466 L334.307,132.542 C334.844,131.362 335.261,130.116 335.557,128.802 C335.852,127.489 336.000,126.229 336.000,125.023 C336.000,124.836 335.994,124.540 335.980,124.138 C335.966,123.736 335.933,123.361 335.879,123.012 L340.881,123.012 C340.907,123.334 340.927,123.670 340.941,124.018 C340.954,124.366 340.947,124.648 340.921,124.862 C340.867,126.470 340.551,128.018 339.973,129.506 ZM325.353,142.433 C325.353,141.307 325.279,140.349 325.132,139.558 C324.983,138.768 324.741,138.124 324.406,137.628 C324.069,137.132 323.612,136.770 323.034,136.542 C322.456,136.315 321.750,136.201 320.917,136.201 C320.298,136.201 319.653,136.241 318.981,136.321 C318.309,136.402 317.811,136.469 317.489,136.522 L317.489,153.490 L312.609,153.490 L312.609,133.145 C313.550,132.877 314.773,132.622 316.279,132.381 C317.784,132.140 319.451,132.019 321.280,132.019 C323.000,132.019 324.439,132.254 325.595,132.723 C326.751,133.192 327.672,133.848 328.358,134.693 C329.044,135.537 329.528,136.556 329.810,137.749 C330.092,138.942 330.233,140.248 330.233,141.669 L330.233,153.490 L325.353,153.490 L325.353,142.433 ZM298.090,153.932 C296.825,153.932 295.670,153.812 294.621,153.570 C293.572,153.329 292.678,152.941 291.939,152.404 C291.199,151.868 290.621,151.172 290.205,150.313 C289.788,149.456 289.580,148.397 289.580,147.137 C289.580,145.931 289.815,144.912 290.285,144.081 C290.756,143.251 291.395,142.573 292.201,142.051 C293.008,141.528 293.942,141.153 295.004,140.925 C296.066,140.698 297.175,140.583 298.332,140.583 C298.869,140.583 299.434,140.617 300.026,140.684 C300.617,140.751 301.249,140.865 301.921,141.025 L301.921,140.221 C301.921,139.658 301.854,139.122 301.719,138.613 C301.585,138.104 301.350,137.655 301.014,137.266 C300.677,136.878 300.233,136.576 299.683,136.361 C299.131,136.147 298.439,136.040 297.606,136.040 C296.476,136.040 295.441,136.120 294.500,136.281 C293.559,136.442 292.792,136.630 292.201,136.844 L291.596,132.903 C292.214,132.689 293.115,132.475 294.298,132.260 C295.481,132.046 296.745,131.938 298.090,131.938 C299.703,131.938 301.060,132.140 302.163,132.542 C303.265,132.944 304.146,133.507 304.805,134.230 C305.463,134.954 305.934,135.832 306.216,136.864 C306.499,137.896 306.640,139.029 306.640,140.262 L306.640,153.007 C305.887,153.168 304.751,153.363 303.232,153.590 C301.712,153.818 299.998,153.932 298.090,153.932 ZM301.921,144.443 C301.652,144.363 301.262,144.282 300.751,144.202 C300.240,144.121 299.676,144.081 299.058,144.081 C298.519,144.081 297.975,144.121 297.424,144.202 C296.873,144.282 296.376,144.430 295.932,144.644 C295.488,144.859 295.132,145.161 294.863,145.549 C294.594,145.938 294.460,146.427 294.460,147.016 C294.460,148.169 294.823,148.966 295.549,149.409 C296.275,149.851 297.256,150.072 298.493,150.072 C299.998,150.072 301.141,149.992 301.921,149.831 L301.921,144.443 ZM281.755,153.972 C280.249,153.972 278.993,153.771 277.985,153.369 C276.976,152.967 276.176,152.384 275.585,151.620 C274.993,150.856 274.577,149.931 274.335,148.846 C274.093,147.760 273.972,146.521 273.972,145.127 L273.972,126.913 L278.852,126.108 L278.852,132.461 L286.353,132.461 L286.353,136.522 L278.852,136.522 L278.852,145.086 C278.852,146.775 279.120,147.981 279.658,148.705 C280.196,149.429 281.110,149.791 282.401,149.791 C283.288,149.791 284.075,149.697 284.760,149.509 C285.446,149.322 285.990,149.147 286.394,148.987 L287.200,152.847 C286.636,153.088 285.896,153.336 284.982,153.590 C284.068,153.845 282.992,153.972 281.755,153.972 ZM261.026,154.013 C259.171,154.013 257.678,153.858 256.549,153.550 C255.420,153.242 254.626,152.994 254.170,152.806 L255.016,148.745 C255.742,149.041 256.610,149.322 257.618,149.590 C258.626,149.858 259.776,149.992 261.066,149.992 C262.357,149.992 263.298,149.838 263.889,149.529 C264.480,149.222 264.777,148.692 264.777,147.941 C264.777,147.244 264.460,146.668 263.829,146.212 C263.197,145.757 262.155,145.261 260.703,144.725 C259.816,144.403 259.002,144.061 258.263,143.699 C257.523,143.337 256.885,142.915 256.347,142.433 C255.809,141.950 255.386,141.367 255.077,140.684 C254.768,140.000 254.613,139.163 254.613,138.171 C254.613,136.241 255.325,134.720 256.751,133.607 C258.176,132.495 260.111,131.938 262.558,131.938 C263.795,131.938 264.978,132.053 266.108,132.280 C267.237,132.508 268.084,132.729 268.648,132.944 L267.761,136.884 C267.223,136.643 266.537,136.422 265.704,136.221 C264.871,136.020 263.903,135.919 262.800,135.919 C261.805,135.919 260.999,136.087 260.381,136.422 C259.762,136.757 259.453,137.273 259.453,137.970 C259.453,138.318 259.513,138.627 259.634,138.894 C259.755,139.163 259.963,139.411 260.260,139.638 C260.555,139.866 260.945,140.094 261.429,140.322 C261.913,140.550 262.504,140.784 263.204,141.025 C264.359,141.455 265.341,141.877 266.148,142.292 C266.954,142.708 267.620,143.177 268.144,143.699 C268.669,144.222 269.052,144.819 269.294,145.489 C269.536,146.159 269.657,146.963 269.657,147.901 C269.657,149.911 268.911,151.433 267.418,152.465 C265.926,153.496 263.795,154.013 261.026,154.013 ZM247.112,129.285 C246.278,129.285 245.566,129.017 244.975,128.481 C244.383,127.945 244.087,127.221 244.087,126.309 C244.087,125.371 244.383,124.634 244.975,124.098 C245.566,123.562 246.278,123.294 247.112,123.294 C247.919,123.294 248.618,123.562 249.209,124.098 C249.800,124.634 250.097,125.371 250.097,126.309 C250.097,127.221 249.800,127.945 249.209,128.481 C248.618,129.017 247.919,129.285 247.112,129.285 ZM236.958,147.298 C237.790,148.370 238.567,149.443 239.292,150.514 C240.017,151.587 240.620,152.579 241.103,153.490 L235.457,153.490 C234.973,152.659 234.414,151.788 233.783,150.876 C233.151,149.965 232.472,149.081 231.746,148.223 C231.020,147.365 230.280,146.554 229.528,145.790 C228.775,145.026 228.036,144.377 227.310,143.840 L227.310,153.490 L222.430,153.490 L222.430,123.093 L227.310,122.289 L227.310,140.664 C227.928,140.020 228.586,139.330 229.286,138.593 C229.985,137.856 230.670,137.119 231.343,136.381 C232.015,135.645 232.654,134.934 233.259,134.250 C233.864,133.567 234.381,132.971 234.811,132.461 L240.579,132.461 C239.237,133.963 237.822,135.517 236.333,137.125 C234.845,138.734 233.349,140.302 231.847,141.830 C232.652,142.500 233.497,143.311 234.382,144.262 C235.268,145.214 236.126,146.226 236.958,147.298 ZM207.911,153.932 C206.646,153.932 205.491,153.812 204.442,153.570 C203.393,153.329 202.499,152.941 201.760,152.404 C201.020,151.868 200.442,151.172 200.026,150.313 C199.609,149.456 199.401,148.397 199.401,147.137 C199.401,145.931 199.636,144.912 200.106,144.081 C200.577,143.251 201.216,142.573 202.022,142.051 C202.829,141.528 203.763,141.153 204.825,140.925 C205.887,140.698 206.996,140.583 208.153,140.583 C208.690,140.583 209.255,140.617 209.846,140.684 C210.438,140.751 211.070,140.865 211.742,141.025 L211.742,140.221 C211.742,139.658 211.675,139.122 211.540,138.613 C211.405,138.104 211.170,137.655 210.835,137.266 C210.498,136.878 210.054,136.576 209.504,136.361 C208.952,136.147 208.260,136.040 207.427,136.040 C206.297,136.040 205.262,136.120 204.321,136.281 C203.380,136.442 202.613,136.630 202.022,136.844 L201.417,132.903 C202.035,132.689 202.936,132.475 204.119,132.260 C205.302,132.046 206.566,131.938 207.911,131.938 C209.524,131.938 210.881,132.140 211.984,132.542 C213.086,132.944 213.967,133.507 214.626,134.230 C215.284,134.954 215.755,135.832 216.037,136.864 C216.320,137.896 216.461,139.029 216.461,140.262 L216.461,153.007 C215.708,153.168 214.571,153.363 213.053,153.590 C211.533,153.818 209.819,153.932 207.911,153.932 ZM211.742,144.443 C211.473,144.363 211.083,144.282 210.572,144.202 C210.061,144.121 209.497,144.081 208.878,144.081 C208.340,144.081 207.796,144.121 207.245,144.202 C206.694,144.282 206.196,144.430 205.753,144.644 C205.309,144.859 204.952,145.161 204.684,145.549 C204.415,145.938 204.281,146.427 204.281,147.016 C204.281,148.169 204.644,148.966 205.370,149.409 C206.096,149.851 207.077,150.072 208.314,150.072 C209.819,150.072 210.962,149.992 211.742,149.831 L211.742,144.443 ZM193.110,141.528 C192.007,142.266 190.663,142.808 189.076,143.156 C187.490,143.505 185.675,143.679 183.632,143.679 L181.091,143.679 L181.091,153.490 L176.009,153.490 L176.009,126.028 C177.192,125.760 178.503,125.579 179.941,125.485 C181.379,125.392 182.704,125.344 183.914,125.344 C187.974,125.344 191.086,126.082 193.251,127.556 C195.415,129.030 196.497,131.335 196.497,134.472 C196.497,136.107 196.208,137.507 195.630,138.673 C195.052,139.839 194.212,140.791 193.110,141.528 ZM190.649,132.140 C190.300,131.523 189.816,131.041 189.197,130.692 C188.579,130.344 187.846,130.096 186.999,129.948 C186.152,129.801 185.245,129.727 184.277,129.727 C182.986,129.727 181.924,129.767 181.091,129.848 L181.091,139.337 L183.551,139.337 C185.997,139.337 187.880,138.995 189.197,138.311 C190.515,137.628 191.174,136.335 191.174,134.431 C191.174,133.520 190.998,132.756 190.649,132.140 ZM249.572,153.490 L244.692,153.490 L244.692,132.461 L249.572,132.461 L249.572,153.490 ZM775.061,153.490 L770.181,153.490 L770.181,132.461 L775.061,132.461 L775.061,153.490 Z" class="cls-2"/>
    <path d="M145.582,90.616 L158.584,99.959 L158.584,62.037 L144.080,54.618 L144.080,29.336 L108.393,29.336 C108.393,29.336 84.879,9.001 81.282,9.001 C77.686,9.001 2.993,63.686 2.993,63.686 L2.993,100.509 L14.889,91.166 L14.889,153.270 L45.596,153.270 C45.596,153.270 41.446,153.270 42.553,146.400 C43.659,139.530 74.090,88.967 74.090,88.967 L43.383,95.746 C43.383,95.746 30.104,94.463 29.550,84.296 C28.997,74.128 37.850,70.281 37.850,70.281 L95.391,55.442 C95.391,55.442 111.436,52.144 114.479,61.213 C117.522,70.281 114.203,78.800 114.203,78.800 L86.815,126.065 L117.799,118.370 C117.799,118.370 132.738,116.996 133.568,128.263 C134.398,139.530 127.758,142.003 127.758,142.003 L94.561,150.796 L89.028,153.544 L145.569,153.544 L145.582,90.616 Z" class="cls-3"/>
  </g>
</svg>
